<svg xmlns="http://www.w3.org/2000/svg" viewBox="153 2883.5 127.047 28.778">
  <defs>
    <style>
      .cls-1, .cls-2 {
        fill: #f9b045;
      }

      .cls-1 {
        stroke: #f9b045;
        stroke-linejoin: round;
        stroke-miterlimit: 10;
      }
    </style>
  </defs>
  <g id="Group_38" data-name="Group 38" transform="translate(-386.659 2480.445)">
    <g id="Group_32" data-name="Group 32" transform="translate(541.599 403.555)">
      <path id="Path_34" data-name="Path 34" class="cls-1" d="M250.8,108.788c-.2-1.531-1.429-2.348-3.726-2.348s-3.42.715-3.42,2.144a1.566,1.566,0,0,0,.715,1.378,7.655,7.655,0,0,0,1.838.766,23.891,23.891,0,0,0,2.4.561A10.991,10.991,0,0,1,251,112a5.177,5.177,0,0,1,1.838,1.276,3.082,3.082,0,0,1,.715,2.195,3.866,3.866,0,0,1-1.633,3.318,7.528,7.528,0,0,1-4.441,1.123,7.233,7.233,0,0,1-4.747-1.48,4.679,4.679,0,0,1-1.735-3.42h2.348a3.081,3.081,0,0,0,2.348,2.756,5.346,5.346,0,0,0,1.531.255,12.548,12.548,0,0,0,1.429-.1,5.182,5.182,0,0,0,1.276-.306,1.944,1.944,0,0,0,1.429-1.94,1.719,1.719,0,0,0-.715-1.429,7.66,7.66,0,0,0-1.838-.817,23.889,23.889,0,0,0-2.4-.561,10.991,10.991,0,0,1-2.4-.715,5.793,5.793,0,0,1-1.838-1.225,2.876,2.876,0,0,1-.715-2.144,3.853,3.853,0,0,1,1.48-3.165,7.051,7.051,0,0,1,4.39-1.123,6.671,6.671,0,0,1,4.339,1.327,4.3,4.3,0,0,1,1.531,2.909h-2.4Z" transform="translate(-241 -98.579)"/>
      <path id="Path_35" data-name="Path 35" class="cls-1" d="M276.1,94.5v2.909h-2.4V94.5Zm-2.348,5.411H276v14.9h-2.246Z" transform="translate(-257.009 -93.683)"/>
      <path id="Path_36" data-name="Path 36" class="cls-1" d="M290.795,107.1a4.871,4.871,0,0,1,4.543-2.5,5.172,5.172,0,0,1,4.747,3.012,5.663,5.663,0,0,1,5.1-3.012,5.871,5.871,0,0,1,2.093.408,6.182,6.182,0,0,1,1.787,1.225,6.29,6.29,0,0,1,1.684,4.492v8.984h-2.246v-8.933a4.714,4.714,0,0,0-1.021-3.063,3.437,3.437,0,0,0-2.654-1.123,3.693,3.693,0,0,0-2.807,1.123,4.006,4.006,0,0,0-1.174,3.114v8.933H298.5v-8.933a4.714,4.714,0,0,0-1.021-3.063,3.437,3.437,0,0,0-2.654-1.123,3.693,3.693,0,0,0-2.807,1.123,4.006,4.006,0,0,0-1.174,3.114v8.933H288.6v-14.9h2.246V107.1Z" transform="translate(-264.303 -98.628)"/>
      <path id="Path_37" data-name="Path 37" class="cls-1" d="M344.046,107.3a6.029,6.029,0,0,1,5.36-2.6,6.682,6.682,0,0,1,5.206,2.246,7.826,7.826,0,0,1,1.991,5.462,7.914,7.914,0,0,1-1.991,5.462,6.858,6.858,0,0,1-5.36,2.246,5.923,5.923,0,0,1-5.206-2.654v8.32H341.8V104.955h2.246Zm5.053-.613a4.742,4.742,0,0,0-3.828,1.684,5.871,5.871,0,0,0-1.327,3.981,6.042,6.042,0,0,0,1.327,3.981,4.674,4.674,0,0,0,3.828,1.684,4.99,4.99,0,0,0,3.879-1.684,5.9,5.9,0,0,0,1.378-3.981,5.813,5.813,0,0,0-1.378-3.981A4.917,4.917,0,0,0,349.1,106.691Z" transform="translate(-290.348 -98.677)"/>
      <path id="Path_38" data-name="Path 38" class="cls-1" d="M381.446,114.277H379.2V93.4h2.246Z" transform="translate(-308.658 -93.145)"/>
      <path id="Path_39" data-name="Path 39" class="cls-1" d="M396.2,94.5v2.909h-2.4V94.5Zm-2.348,5.411H396.1v14.9h-2.246Z" transform="translate(-315.806 -93.683)"/>
      <path id="Path_40" data-name="Path 40" class="cls-1" d="M413.512,95.044a3.4,3.4,0,0,0-2.348.715A2.915,2.915,0,0,0,410.4,98v1.123h3.471v1.991H410.4v12.914h-2.246V101.118H405.6V99.127h2.552V97.8a4.547,4.547,0,0,1,1.48-3.675,6.135,6.135,0,0,1,4.032-1.225h.2v2.093h-.357Z" transform="translate(-321.582 -92.9)"/>
      <path id="Path_41" data-name="Path 41" class="cls-1" d="M430.209,128.3v3.063H427.3V128.3Z" transform="translate(-332.206 -110.231)"/>
      <path id="Path_42" data-name="Path 42" class="cls-1" d="M453.308,117.312a6.029,6.029,0,0,1-5.36,2.6,6.865,6.865,0,0,1-5.258-2.246,7.826,7.826,0,0,1-1.991-5.462,7.914,7.914,0,0,1,1.991-5.462A6.968,6.968,0,0,1,448.1,104.5a5.923,5.923,0,0,1,5.206,2.654v-2.4h2.246v14.9h-2.246Zm-5.053.613a4.742,4.742,0,0,0,3.828-1.684,5.871,5.871,0,0,0,1.327-3.981,6.042,6.042,0,0,0-1.327-3.981,4.673,4.673,0,0,0-3.828-1.684,4.99,4.99,0,0,0-3.879,1.684A5.9,5.9,0,0,0,443,112.259a5.814,5.814,0,0,0,1.378,3.981A4.99,4.99,0,0,0,448.255,117.924Z" transform="translate(-338.766 -98.579)"/>
      <path id="Path_43" data-name="Path 43" class="cls-1" d="M482.3,94.5v2.909h-2.4V94.5Zm-2.348,5.411H482.2v14.9h-2.246Z" transform="translate(-357.957 -93.683)"/>
    </g>
    <g id="Group_34" data-name="Group 34" transform="translate(539.659 429.791)">
      <path id="Path_45" data-name="Path 45" class="cls-2" d="M281.71,146.342H238.221a1.021,1.021,0,1,1,0-2.042H281.71a1.024,1.024,0,0,1,1.021,1.021A.992.992,0,0,1,281.71,146.342Z" transform="translate(-237.2 -144.3)"/>
    </g>
    <g id="Group_35" data-name="Group 35" transform="translate(602.851 429.791)">
      <path id="Path_46" data-name="Path 46" class="cls-2" d="M423.835,146.342H362.021a1.021,1.021,0,0,1,0-2.042h61.814a1.021,1.021,0,0,1,0,2.042Z" transform="translate(-361 -144.3)"/>
    </g>
  </g>
</svg>
