<svg xmlns="http://www.w3.org/2000/svg" viewBox="84.25 2877 45.482 41.063">
  <defs>
    <style>
      .cls-1 {
        fill: #f9b045;
      }
    </style>
  </defs>
  <g id="Group_68" data-name="Group 68" transform="translate(-424.754 2739.098)">
    <path id="Path_21" data-name="Path 21" class="cls-1" d="M197.292,26.34a.878.878,0,0,1-.569-.244L184.776,15.531a1.589,1.589,0,0,1-.488-1.544,1.721,1.721,0,0,1,1.138-1.219L228.663.5a.88.88,0,0,1,.975.406.776.776,0,0,1-.244.975L197.779,26.1C197.7,26.34,197.454,26.34,197.292,26.34Zm27.8-23.081L185.914,14.312l11.459,10.159Z" transform="translate(324.767 137.427)"/>
    <path id="Path_22" data-name="Path 22" class="cls-1" d="M221.035,37.741a1.531,1.531,0,0,1-.65-.163l-15.6-7.233a.859.859,0,0,1-.488-.569.7.7,0,0,1,.244-.731L232.088.843a.864.864,0,0,1,.975-.163.752.752,0,0,1,.325.975L222.579,36.6a1.74,1.74,0,0,1-1.544,1.138Zm-14.548-8.452,14.629,6.746,9.753-31.7Z" transform="translate(321.017 137.405)"/>
    <path id="Path_23" data-name="Path 23" class="cls-1" d="M198.412,48.027a.878.878,0,0,1-.569-.244.864.864,0,0,1-.163-.975l5.445-11.216a.806.806,0,0,1,1.057-.406l7.64,3.576a.934.934,0,0,1,.488.731.853.853,0,0,1-.406.731l-13.085,7.558C198.656,48.027,198.575,48.027,198.412,48.027Zm5.852-10.891-3.9,8.046,9.428-5.445Z" transform="translate(322.265 130.938)"/>
    <path id="Path_24" data-name="Path 24" class="cls-1" d="M198.413,47.121h0a.886.886,0,0,1-.813-.894l1.382-15.2a.82.82,0,0,1,.894-.731.768.768,0,0,1,.731.894l-1.382,15.2A.864.864,0,0,1,198.413,47.121Z" transform="translate(322.265 131.844)"/>
  </g>
</svg>
