<svg xmlns="http://www.w3.org/2000/svg" viewBox="3270 3857 26.981 31.562">
  <defs>
    <style>
      .cls-1 {
        fill: #fff;
      }
    </style>
  </defs>
  <g id="Group_97" data-name="Group 97" transform="translate(3269.937 3857.03)">
    <path id="Path_57" data-name="Path 57" class="cls-1" d="M6.136,29.528a.488.488,0,0,1-.273-.091l-3.1-2.595a.734.734,0,0,1-.182-.319c-.046-.137.046-.228.091-.319L24.072.849a2.411,2.411,0,0,1,3.46-.273,2.411,2.411,0,0,1,.273,3.46L6.409,29.392A.275.275,0,0,1,6.136,29.528Zm-2.413-3.05L6.09,28.436,27.168,3.4A1.518,1.518,0,0,0,24.846,1.44Z" transform="translate(-1.367 0)"/>
    <path id="Path_58" data-name="Path 58" class="cls-1" d="M.489,62.807a.488.488,0,0,1-.273-.091.462.462,0,0,1-.137-.455l1.229-4.552a.468.468,0,0,1,.546-.319.468.468,0,0,1,.319.546l-.956,3.6,3.369-1.593a.448.448,0,1,1,.364.819L.671,62.716A.345.345,0,0,1,.489,62.807Z" transform="translate(0 -31.275)"/>
    <path id="Path_59" data-name="Path 59" class="cls-1" d="M51.13,7.484a.488.488,0,0,1-.273-.091l-3.05-2.549a.452.452,0,1,1,.592-.683l3.05,2.549a.442.442,0,0,1,.046.637A.517.517,0,0,1,51.13,7.484Z" transform="translate(-25.921 -2.22)"/>
    <path id="Path_60" data-name="Path 60" class="cls-1" d="M46.53,12.984a.488.488,0,0,1-.273-.091l-3.05-2.549a.452.452,0,0,1,.592-.683l3.05,2.549a.442.442,0,0,1,.046.637A.605.605,0,0,1,46.53,12.984Z" transform="translate(-23.416 -5.216)"/>
  </g>
</svg>
