<svg xmlns="http://www.w3.org/2000/svg" viewBox="657 1713.5 473.031 105.787">
  <defs>
    <style>
      .cls-1, .cls-2 {
        fill: #fff;
      }

      .cls-1 {
        stroke: #fff;
        stroke-linejoin: round;
        stroke-miterlimit: 10;
      }
    </style>
  </defs>
  <g id="Group_38" data-name="Group 38" transform="translate(117.341 1310.445)">
    <g id="Group_32" data-name="Group 32" transform="translate(546.881 403.555)">
      <path id="Path_34" data-name="Path 34" class="cls-1" d="M277.489,120.464c-.76-5.7-5.321-8.742-13.874-8.742s-12.733,2.661-12.733,7.982a5.829,5.829,0,0,0,2.661,5.131,28.5,28.5,0,0,0,6.842,2.851,88.961,88.961,0,0,0,8.932,2.091,40.923,40.923,0,0,1,8.932,2.661,19.276,19.276,0,0,1,6.842,4.751c1.9,2.091,2.661,4.751,2.661,8.172a14.4,14.4,0,0,1-6.082,12.353c-3.991,2.851-9.5,4.181-16.534,4.181-7.412,0-13.3-1.9-17.675-5.511A17.422,17.422,0,0,1,241,143.65h8.742c.57,5.131,3.421,8.552,8.742,10.263a19.9,19.9,0,0,0,5.7.95,46.722,46.722,0,0,0,5.321-.38,19.3,19.3,0,0,0,4.751-1.14c3.611-1.33,5.321-3.8,5.321-7.222a6.4,6.4,0,0,0-2.661-5.321,28.521,28.521,0,0,0-6.842-3.041,88.955,88.955,0,0,0-8.932-2.091,40.922,40.922,0,0,1-8.932-2.661,21.569,21.569,0,0,1-6.842-4.561c-1.9-1.9-2.661-4.561-2.661-7.982a14.344,14.344,0,0,1,5.511-11.783c3.611-2.851,9.122-4.181,16.344-4.181,6.842,0,12.163,1.71,16.154,4.941a16.016,16.016,0,0,1,5.7,10.833h-8.932Z" transform="translate(-241 -82.454)"/>
      <path id="Path_35" data-name="Path 35" class="cls-1" d="M282.632,94.5v10.833H273.7V94.5Zm-8.742,20.145h8.362v55.494H273.89Z" transform="translate(-211.554 -91.459)"/>
      <path id="Path_36" data-name="Path 36" class="cls-1" d="M296.772,113.912c3.611-6.272,9.312-9.312,16.914-9.312a19.255,19.255,0,0,1,17.674,11.213c2.471-4.751,6.462-7.982,11.783-10.073a21.331,21.331,0,0,1,7.222-1.14,21.861,21.861,0,0,1,7.792,1.52,23.017,23.017,0,0,1,6.652,4.561c4.181,4.371,6.272,10.073,6.272,16.724v33.449h-8.362V127.6a17.552,17.552,0,0,0-3.8-11.4,12.8,12.8,0,0,0-9.883-4.181,13.75,13.75,0,0,0-10.453,4.181c-3.041,2.851-4.371,6.652-4.371,11.593v33.258h-8.742V127.786a17.552,17.552,0,0,0-3.8-11.4,12.8,12.8,0,0,0-9.883-4.181,13.75,13.75,0,0,0-10.453,4.181c-3.041,2.851-4.371,6.652-4.371,11.593v33.259H288.6V105.74h8.362v8.172Z" transform="translate(-198.137 -82.364)"/>
      <path id="Path_37" data-name="Path 37" class="cls-1" d="M350.162,114.392q6.557-9.692,19.955-9.692c7.982,0,14.444,2.851,19.385,8.362s7.412,12.163,7.412,20.335c0,7.982-2.471,14.824-7.412,20.335s-11.593,8.362-19.955,8.362-14.824-3.231-19.385-9.883V183.19H341.8V105.65h8.362Zm18.815-2.281c-6.082,0-10.643,2.091-14.254,6.272-3.421,3.991-4.941,8.932-4.941,14.824s1.71,11.023,4.941,14.824q5.131,6.272,14.254,6.272a18.579,18.579,0,0,0,14.444-6.272,21.983,21.983,0,0,0,5.131-14.824c0-5.892-1.71-11.023-5.131-14.824A18.307,18.307,0,0,0,368.977,112.112Z" transform="translate(-150.231 -82.274)"/>
      <path id="Path_38" data-name="Path 38" class="cls-1" d="M387.562,171.13H379.2V93.4h8.362Z" transform="translate(-116.553 -92.45)"/>
      <path id="Path_39" data-name="Path 39" class="cls-1" d="M402.732,94.5v10.833H393.8V94.5Zm-8.742,20.145h8.362v55.494H393.99Z" transform="translate(-103.406 -91.459)"/>
      <path id="Path_40" data-name="Path 40" class="cls-1" d="M435.058,100.882c-3.991,0-6.842.95-8.742,2.661s-2.851,4.561-2.851,8.362v4.181h12.923V123.5H423.465V171.58H415.1V123.5h-9.5v-7.412h9.5v-4.941c0-6.082,1.9-10.643,5.511-13.683s8.742-4.561,15.014-4.561h.76v7.792h-1.33Z" transform="translate(-92.78 -92.9)"/>
      <path id="Path_41" data-name="Path 41" class="cls-1" d="M438.133,128.3v11.4H427.3V128.3Z" transform="translate(-73.24 -61.023)"/>
      <path id="Path_42" data-name="Path 42" class="cls-1" d="M487.642,152.2q-6.557,9.692-19.955,9.692a25.561,25.561,0,0,1-19.575-8.362c-4.941-5.511-7.412-12.163-7.412-20.335,0-7.982,2.471-14.824,7.412-20.335S459.9,104.5,468.257,104.5s14.824,3.231,19.385,9.883V105.45H496v55.494h-8.362V152.2Zm-18.815,2.281c6.082,0,10.643-2.091,14.254-6.272,3.421-3.991,4.941-8.932,4.941-14.824s-1.71-11.023-4.941-14.824q-5.131-6.272-14.254-6.272a18.58,18.58,0,0,0-14.444,6.272,21.983,21.983,0,0,0-5.131,14.824c0,5.892,1.71,11.023,5.131,14.824A18.58,18.58,0,0,0,468.827,154.483Z" transform="translate(-61.173 -82.454)"/>
      <path id="Path_43" data-name="Path 43" class="cls-1" d="M488.832,94.5v10.833H479.9V94.5Zm-8.742,20.145h8.362v55.494H480.09Z" transform="translate(-25.874 -91.459)"/>
    </g>
    <g id="Group_34" data-name="Group 34" transform="translate(539.659 501.24)">
      <path id="Path_45" data-name="Path 45" class="cls-2" d="M402.922,151.9H241a3.8,3.8,0,0,1,0-7.6H402.922a3.812,3.812,0,0,1,3.8,3.8A3.7,3.7,0,0,1,402.922,151.9Z" transform="translate(-237.2 -144.3)"/>
    </g>
    <g id="Group_35" data-name="Group 35" transform="translate(774.939 501.24)">
      <path id="Path_46" data-name="Path 46" class="cls-2" d="M594.95,151.9H364.8a3.8,3.8,0,0,1,0-7.6H594.95a3.8,3.8,0,1,1,0,7.6Z" transform="translate(-361 -144.3)"/>
    </g>
  </g>
</svg>
