<svg xmlns="http://www.w3.org/2000/svg" viewBox="1257.51 1650.8 282.861 241.42">
  <defs>
    <style>
      .cls-1 {
        fill: #fff;
      }

      .cls-2 {
        fill: #fcfcfc;
      }
    </style>
  </defs>
  <g id="Group_59" data-name="Group 59" transform="translate(122 1024)">
    <g id="Group_16" data-name="Group 16" transform="translate(1165.577 631.77)">
      <path id="Path_16" data-name="Path 16" class="cls-1" d="M563.214,318.219h-.38a1.883,1.883,0,0,1-1.52-2.091l32.308-212.094a1.828,1.828,0,1,1,3.611.57L564.925,316.7A1.675,1.675,0,0,1,563.214,318.219Z" transform="translate(-561.285 -102.485)"/>
    </g>
    <g id="Group_17" data-name="Group 17" transform="translate(1173.16 659.308)">
      <circle id="Ellipse_4" data-name="Ellipse 4" class="cls-1" cx="3.421" cy="3.421" r="3.421" transform="translate(1.387 7.988) rotate(-81.321)"/>
      <path id="Path_17" data-name="Path 17" class="cls-1" d="M570.454,127.476h-.76a5.042,5.042,0,0,1-3.421-2.091,5.728,5.728,0,0,1-.95-3.991,5.361,5.361,0,0,1,6.082-4.371,5.129,5.129,0,0,1,4.371,6.082,5.042,5.042,0,0,1-2.09,3.421A6.407,6.407,0,0,1,570.454,127.476Zm0-6.842a1.613,1.613,0,0,0-1.52,1.33,2.41,2.41,0,0,0,.19,1.14,1.045,1.045,0,0,0,.95.57,2.411,2.411,0,0,0,1.14-.19,1.045,1.045,0,0,0,.57-.95h0a1.48,1.48,0,0,0-1.14-1.71A.186.186,0,0,0,570.454,120.634Z" transform="translate(-565.275 -116.975)"/>
    </g>
    <g id="Group_18" data-name="Group 18" transform="translate(1161.443 735.227)">
      <circle id="Ellipse_5" data-name="Ellipse 5" class="cls-1" cx="3.421" cy="3.421" r="3.421" transform="matrix(0.826, -0.563, 0.563, 0.826, 0.557, 4.24)"/>
      <path id="Path_18" data-name="Path 18" class="cls-1" d="M564.413,167.333h-.95a4.688,4.688,0,0,1-3.421-2.281h0a5.154,5.154,0,0,1,1.33-7.222,4.838,4.838,0,0,1,3.991-.76,4.687,4.687,0,0,1,3.421,2.281,4.838,4.838,0,0,1,.76,3.991,4.687,4.687,0,0,1-2.281,3.421A10.768,10.768,0,0,1,564.413,167.333Zm-1.14-4.561a1.045,1.045,0,0,0,.95.57,2.41,2.41,0,0,0,1.14-.19,1.045,1.045,0,0,0,.57-.95,2.41,2.41,0,0,0-.19-1.14,1.045,1.045,0,0,0-.95-.57,2.41,2.41,0,0,0-1.14.19,1.39,1.39,0,0,0-.38,2.091Z" transform="translate(-559.11 -156.922)"/>
    </g>
    <g id="Group_19" data-name="Group 19" transform="translate(1149.493 814.097)">
      <circle id="Ellipse_6" data-name="Ellipse 6" class="cls-1" cx="3.421" cy="3.421" r="3.421" transform="matrix(0.826, -0.563, 0.563, 0.826, 0.465, 4.386)"/>
      <path id="Path_19" data-name="Path 19" class="cls-1" d="M558.1,209.023a5.086,5.086,0,0,1-4.371-2.281h0a4.839,4.839,0,0,1-.76-3.991,4.688,4.688,0,0,1,2.281-3.421,4.838,4.838,0,0,1,3.991-.76,4.688,4.688,0,0,1,3.421,2.281,5.154,5.154,0,0,1-1.33,7.222A6.1,6.1,0,0,1,558.1,209.023Zm-1.33-4.371c.38.76,1.33.76,2.09.38s.76-1.33.38-2.091a1.045,1.045,0,0,0-.95-.57,2.41,2.41,0,0,0-1.14.19,1.682,1.682,0,0,0-.38,2.091Z" transform="translate(-552.822 -198.422)"/>
    </g>
    <g id="Group_20" data-name="Group 20" transform="translate(1381.311 722.833)">
      <path id="Path_20" data-name="Path 20" class="cls-1" d="M703.878,166.364h-26.8a1.9,1.9,0,1,1,0-3.8h26.8a4.181,4.181,0,0,0,0-8.362H676.7a1.9,1.9,0,0,1,0-3.8h27.177a8.03,8.03,0,0,1,7.982,7.982A8.157,8.157,0,0,1,703.878,166.364Z" transform="translate(-674.8 -150.4)"/>
    </g>
    <g id="Group_33" data-name="Group 33" transform="translate(1135.51 626.8)">
      <path id="Path_44" data-name="Path 44" class="cls-1" d="M734.251,254.437a26.909,26.909,0,0,1-3.8-.76l-.95,6.272L561.307,234.292l1.14-7.6,160.591,24.516a49.592,49.592,0,0,1-9.883-5.321l-150.138-23,1.14-7.6,138.925,21.285a37.1,37.1,0,0,1-3.231-4.371L564.727,211.676l1.14-7.6,129.423,19.765a34.292,34.292,0,0,1-1.52-3.991L566.438,200.463l1.14-7.6,124.292,19a28.36,28.36,0,0,1-.38-3.991L568.338,189.06l1.14-7.6L691.49,200.083a25.746,25.746,0,0,1,.38-3.8L570.049,177.657l1.14-7.6L693.58,188.68a20.263,20.263,0,0,1,1.33-3.611L571.949,166.255l1.14-7.6,125.432,19.195,2.281-3.421L573.85,155.042l1.14-7.6L706.5,167.585a29.21,29.21,0,0,1,3.611-3.231L574.99,144.209l1.14-7.6,142.916,21.856a41.226,41.226,0,0,1,6.652-2.851l-149-22.806,4.371-28.887,168.193,25.657-3.611,23.186a25.755,25.755,0,0,1,3.8.38l3.611-23.186a3.842,3.842,0,0,0-3.231-4.371L581.642,99.928a3.842,3.842,0,0,0-4.371,3.231L569.1,156.372l-1.71,11.213h0l-10.263,67.657h0l-1.711,11.213h0l-1.71,11.213h0l-6.842,45.041h0l-1.33,8.552a3.181,3.181,0,0,0,.76,2.851,4.226,4.226,0,0,0,2.471,1.52l168.193,25.656h.57a3.866,3.866,0,0,0,3.8-3.231l1.33-8.552h0l1.71-11.213h0l1.711-11.213h0l1.71-11.213h0l1.711-11.213h0l1.711-11.213h0l1.71-11.213h0Zm-16.534,83.621h0L549.524,312.4l.95-6.652,168.193,25.656Zm1.52-10.453L551.044,301.949l1.14-7.6L720.377,320Zm1.71-11.213L552.754,290.736l1.14-7.6,168.193,25.657Zm1.711-11.213L554.465,279.523l1.14-7.6L723.8,297.578Zm1.71-11.4L556.175,268.121l1.14-7.6,168.193,25.656Zm1.711-11.213L557.886,256.908l1.14-7.6,168.193,25.657Zm1.71-11.213L559.6,245.695l1.14-7.6,168.193,25.657Z" transform="translate(-545.464 -99.869)"/>
    </g>
    <g id="Group_36" data-name="Group 36" transform="translate(1291.418 690.145)">
      <circle id="Ellipse_7" data-name="Ellipse 7" class="cls-2" cx="38.96" cy="38.96" r="38.96" transform="translate(1.9 1.71)"/>
      <path id="Path_47" data-name="Path 47" class="cls-1" d="M668.36,214.921a40.86,40.86,0,1,1,40.86-40.86A40.919,40.919,0,0,1,668.36,214.921Zm0-78.11A37.059,37.059,0,1,0,705.42,173.87,37.107,37.107,0,0,0,668.36,136.811Z" transform="translate(-627.5 -133.2)"/>
    </g>
    <g id="Group_37" data-name="Group 37" transform="translate(1279.255 677.791)">
      <path id="Path_48" data-name="Path 48" class="cls-1" d="M674.124,232.747a53.024,53.024,0,1,1,53.023-53.024,51.754,51.754,0,0,1-6.842,26.037A52.736,52.736,0,0,1,674.124,232.747Zm0-102.246a49.18,49.18,0,1,0,49.223,49.223A49.233,49.233,0,0,0,674.124,130.5Z" transform="translate(-621.1 -126.7)"/>
    </g>
  </g>
</svg>
