<svg xmlns="http://www.w3.org/2000/svg" viewBox="291.692 1731.215 143.668 129.71">
  <defs>
    <style>
      .cls-1 {
        fill: #fff;
      }
    </style>
  </defs>
  <g id="Group_61" data-name="Group 61" transform="translate(-217.312 1593.313)">
    <path id="Path_21" data-name="Path 21" class="cls-1" d="M225.474,82.177a2.773,2.773,0,0,1-1.8-.77L185.939,48.033a5.018,5.018,0,0,1-1.54-4.878,5.438,5.438,0,0,1,3.594-3.851L324.568.54a2.78,2.78,0,0,1,3.081,1.284,2.45,2.45,0,0,1-.77,3.081l-99.865,76.5C226.757,82.177,225.987,82.177,225.474,82.177Zm87.8-72.909L189.533,44.183l36.2,32.09Z" transform="translate(324.767 137.427)"/>
    <path id="Path_22" data-name="Path 22" class="cls-1" d="M257.243,117.928a4.837,4.837,0,0,1-2.054-.513L205.9,94.566a2.714,2.714,0,0,1-1.54-1.8,2.2,2.2,0,0,1,.77-2.311L292.158,1.377a2.73,2.73,0,0,1,3.081-.513,2.377,2.377,0,0,1,1.027,3.081l-34.144,110.39a5.5,5.5,0,0,1-4.878,3.594Zm-45.953-26.7,46.21,21.308L288.307,12.416Z" transform="translate(356.151 137.618)"/>
    <path id="Path_23" data-name="Path 23" class="cls-1" d="M200.174,75.882a2.773,2.773,0,0,1-1.8-.77,2.73,2.73,0,0,1-.513-3.081l17.2-35.428A2.547,2.547,0,0,1,218.4,35.32l24.132,11.3a2.95,2.95,0,0,1,1.54,2.311,2.7,2.7,0,0,1-1.284,2.311L201.457,75.112C200.944,75.882,200.687,75.882,200.174,75.882Zm18.484-34.4L206.335,66.9l29.78-17.2Z" transform="translate(345.703 191.729)"/>
    <path id="Path_24" data-name="Path 24" class="cls-1" d="M200.167,83.462h0a2.8,2.8,0,0,1-2.567-2.824l4.364-48.007a2.589,2.589,0,0,1,2.824-2.31c1.54.257,2.567,1.284,2.31,2.824l-4.364,48.007A2.73,2.73,0,0,1,200.167,83.462Z" transform="translate(345.709 184.15)"/>
  </g>
</svg>
