<svg xmlns="http://www.w3.org/2000/svg" viewBox="1320.339 2258.753 131.32 112.96">
  <defs>
    <style>
      .cls-1 {
        fill: #fff;
      }
    </style>
  </defs>
  <g id="Group_60" data-name="Group 60" transform="translate(9 1925)">
    <g id="Group_6" data-name="Group 6" transform="translate(1319.424 338.766)">
      <path id="Path_7" data-name="Path 7" class="cls-1" d="M781.728,140.448a10.346,10.346,0,0,1-6.652-2.471L669.219,48.654a1.847,1.847,0,0,1-.19-2.661L679.672,33.26A3.063,3.063,0,0,1,681,32.5a2.747,2.747,0,0,1,1.33.38L788.19,122.2a10.231,10.231,0,0,1,1.14,14.444A9.363,9.363,0,0,1,781.728,140.448ZM673.21,47.134l104.527,87.992a6.339,6.339,0,1,0,8.172-9.692L681.383,37.441Z" transform="translate(-668.545 -32.5)"/>
    </g>
    <g id="Group_7" data-name="Group 7" transform="translate(1311.339 333.753)">
      <path id="Path_8" data-name="Path 8" class="cls-1" d="M674.381,51.6a1.826,1.826,0,0,1-1.71-1.14L664.5,32.594a2.039,2.039,0,0,1,.19-2.091,1.928,1.928,0,0,1,1.9-.57l19,5.131a1.867,1.867,0,1,1-.95,3.611l-15.014-3.991,6.462,14.064a1.886,1.886,0,0,1-.95,2.471A1.44,1.44,0,0,1,674.381,51.6Z" transform="translate(-664.291 -29.863)"/>
    </g>
    <g id="Group_8" data-name="Group 8" transform="translate(1420.91 424.374)">
      <path id="Path_9" data-name="Path 9" class="cls-1" d="M723.76,93.993a2.037,2.037,0,0,1-1.14-.38,1.847,1.847,0,0,1-.19-2.661l10.643-12.733a1.886,1.886,0,1,1,2.851,2.471L725.28,93.423A3.034,3.034,0,0,1,723.76,93.993Z" transform="translate(-721.945 -77.545)"/>
    </g>
    <g id="Group_9" data-name="Group 9" transform="translate(1410.458 415.632)">
      <path id="Path_10" data-name="Path 10" class="cls-1" d="M718.26,89.393a2.038,2.038,0,0,1-1.14-.38,1.847,1.847,0,0,1-.19-2.661l10.643-12.733a1.886,1.886,0,1,1,2.851,2.471L719.78,88.823A2.528,2.528,0,0,1,718.26,89.393Z" transform="translate(-716.445 -72.945)"/>
    </g>
  </g>
</svg>
