<svg xmlns="http://www.w3.org/2000/svg" viewBox="239.928 2197.808 671.111 372.451">
  <defs>
    <style>
      .cls-1 {
        fill: #fff;
      }
    </style>
  </defs>
  <g id="Group_58" data-name="Group 58" transform="translate(168 1568)">
    <g id="Group_10" data-name="Group 10" transform="translate(71.928 629.808)">
      <path id="Path_11" data-name="Path 11" class="cls-1" d="M49.495,296.231a5.727,5.727,0,0,1-4.941-2.851l-26.987-45.8C-3.149,212.42,7.114,166.428,40.752,144.952a74.78,74.78,0,0,1,104.907,24.9L173.6,217.171a5.823,5.823,0,0,1,.57,4.371,5.373,5.373,0,0,1-2.661,3.421l-7.222,4.371a5.823,5.823,0,0,1-4.371.57,5.373,5.373,0,0,1-3.421-2.661l-27.177-45.8c-15.394-26.037-47.892-35.729-73.929-22.046a55.414,55.414,0,0,0-27.367,33.639,54.839,54.839,0,0,0,5.511,42.951l27.937,47.322a5.65,5.65,0,0,1-2.091,7.792l-7.222,4.371A4.021,4.021,0,0,1,49.495,296.231ZM81.043,136.97a70.519,70.519,0,0,0-38.2,11.213C10.915,168.708,1.032,212.42,20.8,245.868l26.987,45.8a2.1,2.1,0,0,0,2.661.76l7.222-4.371a2.1,2.1,0,0,0,.76-2.661L30.49,238.076A58.19,58.19,0,0,1,24.6,192.084a58.781,58.781,0,0,1,29.077-36.109c27.747-14.634,62.526-4.371,78.87,23.376l27.177,45.8a2.794,2.794,0,0,0,1.14.95,2.144,2.144,0,0,0,1.52-.19l7.222-4.371a2.794,2.794,0,0,0,.95-1.14,2.252,2.252,0,0,0-.19-1.52l-27.937-47.322a71.044,71.044,0,0,0-44.661-33.068A101.33,101.33,0,0,0,81.043,136.97Z" transform="translate(-6.874 -133.023)"/>
    </g>
    <g id="Group_11" data-name="Group 11" transform="translate(229.908 721.368)">
      <path id="Path_12" data-name="Path 12" class="cls-1" d="M602.561,462.092c-21.665-3.041-41.431-10.263-57.2-21.285-13.684-9.5-23.756-23.186-33.259-36.3-1.14-1.52-2.281-3.041-3.231-4.561-3.611-4.941-7.412-9.5-12.353-11.973-8.742-4.371-17.1-.19-25.847,4.181-5.891,3.041-12.163,6.082-18.625,6.462-27.367,1.52-59.865-6.652-69.368-34.209-3.611-10.453-1.9-20.525-.19-30.218,1.14-6.842,2.471-14.064,1.71-21.285a46.728,46.728,0,0,0-19-32.878,47.314,47.314,0,0,0-30.028-8.172c-8.172.57-12.353,3.421-18.055,7.412-1.71,1.14-3.231,2.281-5.321,3.421-17.1,10.833-41.621,11.213-58.345,1.14a53.53,53.53,0,0,1-17.674-17.484h0c-43.331,9.692-80.961-9.693-82.481-10.453C112.236,234.224,90.19,183.1,90,182.72l3.421-1.52c5.891,13.874,28.317,53.974,61.576,71.268,1.52.76,37.44,19.195,78.87,10.263-2.661-5.511-3.991-11.593-2.851-17.675,1.71-9.692,10.263-23.186,21.1-22.046,4.371.38,8.552,3.231,11.783,7.6,3.611,5.131,5.321,11.4,4.181,16.344-2.471,11.023-17.484,15.584-28.507,18.245a49.422,49.422,0,0,0,15.774,15.014c15.394,9.312,38.77,8.742,54.354-1.14,1.9-1.14,3.421-2.281,5.131-3.421,5.7-3.991,10.643-7.412,19.955-8.172a49.863,49.863,0,0,1,32.5,8.742c11.4,7.982,19,21.285,20.525,35.539.76,7.792-.38,15.2-1.71,22.236-1.71,9.693-3.231,18.815,0,28.317,8.742,25.657,39.53,33.068,65.567,31.738,5.7-.38,11.4-3.041,17.294-6.082,9.122-4.561,18.815-9.5,29.267-4.181,5.7,2.851,9.693,7.792,13.684,13.113,1.14,1.52,2.281,3.041,3.231,4.561,9.5,12.923,19.195,26.227,32.5,35.349,15.394,10.643,34.589,17.674,55.494,20.715Zm-351.59-234.9c-7.982,0-14.824,10.833-16.154,19a25.44,25.44,0,0,0,2.851,16.154c10.263-2.471,24.9-6.462,26.8-15.774.95-3.991-.57-9.122-3.611-13.3-2.661-3.611-5.891-5.7-9.122-6.082Z" transform="translate(-90 -181.2)"/>
    </g>
    <g id="Group_30" data-name="Group 30" transform="translate(177.341 691.797)">
      <path id="Path_30" data-name="Path 30" class="cls-1" d="M98.116,203.786l-11.973,7.032a1.923,1.923,0,0,1-2.661-.76L63.527,176.419a1.923,1.923,0,0,1,.76-2.661l11.973-7.032a1.923,1.923,0,0,1,2.661.76l19.955,33.639A2.1,2.1,0,0,1,98.116,203.786Z" transform="translate(-61.513 -164.903)"/>
      <path id="Path_31" data-name="Path 31" class="cls-1" d="M86.02,213.836a1.713,1.713,0,0,1-.95-.19,3.541,3.541,0,0,1-2.281-1.71L62.834,178.3a3.8,3.8,0,0,1-.38-2.851,3.541,3.541,0,0,1,1.71-2.281l11.973-7.032a3.8,3.8,0,0,1,2.851-.38,3.541,3.541,0,0,1,2.281,1.71L101.224,201.1a3.8,3.8,0,0,1,.38,2.851,3.541,3.541,0,0,1-1.71,2.281L87.92,213.266A3.667,3.667,0,0,1,86.02,213.836Zm-7.982-44.471L66.065,176.4,86.02,210.035,97.993,203Z" transform="translate(-62.34 -165.64)"/>
    </g>
    <g id="Group_31" data-name="Group 31" transform="translate(110.775 731.137)">
      <path id="Path_32" data-name="Path 32" class="cls-1" d="M63.116,224.486l-11.973,7.032a1.923,1.923,0,0,1-2.661-.76L28.527,197.119a1.923,1.923,0,0,1,.76-2.661l11.973-7.032a1.923,1.923,0,0,1,2.661.76l19.955,33.639A2.35,2.35,0,0,1,63.116,224.486Z" transform="translate(-26.464 -185.603)"/>
      <path id="Path_33" data-name="Path 33" class="cls-1" d="M51.043,234.536a1.713,1.713,0,0,1-.95-.19,3.541,3.541,0,0,1-2.281-1.71L27.857,199a3.685,3.685,0,0,1,1.33-5.131l11.973-7.032a3.8,3.8,0,0,1,2.851-.38,3.541,3.541,0,0,1,2.281,1.71L66.247,221.8a3.8,3.8,0,0,1,.38,2.851,3.54,3.54,0,0,1-1.71,2.281l-11.973,7.032A3.667,3.667,0,0,1,51.043,234.536Zm-7.982-44.471L31.088,197.1l19.955,33.639L63.016,223.7Z" transform="translate(-27.315 -186.34)"/>
    </g>
  </g>
</svg>
